<?xml version="1.0" encoding="utf-8"?>
<!-- Generator: Adobe Illustrator 23.0.1, SVG Export Plug-In . SVG Version: 6.00 Build 0)  -->
<svg version="1.1" id="Livello_1" xmlns="http://www.w3.org/2000/svg" xmlns:xlink="http://www.w3.org/1999/xlink" x="0px" y="0px"
	 viewBox="0 0 228.8 50.7" style="enable-background:new 0 0 228.8 50.7;" xml:space="preserve">
<style type="text/css">
	.st0{fill:#50CDE5;}
	.st1{fill:#FFFFFF;}
</style>
<title>myfuel</title>
<path class="st0" d="M28.5,17.3c0.3,0.4,0.5,0.9,0.8,1.3c1.8,3.1,3.1,6.5,3.6,10.1c0.4,2.9,0.1,5.9-0.8,8.6
	c-1.7,4.8-4.6,9.1-8.4,12.4L23.3,50c1-3.6,1.7-7.2,2-10.9c-1.8,1.4-3.8,2.5-5.9,3.4c-3.4-5.1-5-11.1-4.7-17.2
	c-0.6,0.5-1.2,0.9-1.7,1.3c-2.9,2.7-4.8,6.2-5.5,10.1c-0.7,4.3-0.4,8.6,0.9,12.7L8.7,50c-0.4-0.3-0.7-0.6-1.1-0.9
	c-2.8-2.4-5-5.5-6.4-9c-1.6-4-1.6-8.4,0-12.3c1.2-3,2.6-5.8,4-8.7s2.9-5.7,4.4-8.6c1.2-2.2,1.8-4.6,1.9-7c0-0.9-0.1-1.9-0.1-2.9
	c0.1,0,0.3,0.1,0.4,0.2c4.8,2.6,8.5,6.6,10.7,11.5c1,2.3,1.6,4.7,1.7,7.2c0.1,2.4,0.2,4.8,0.1,7.1c0,2.5-0.5,5-1.5,7.3
	c1.1-0.8,3.5-5.1,4.4-7.8C28.1,23.4,28.5,20.3,28.5,17.3L28.5,17.3z"/>
<path class="st1" d="M73.4,42.9V25.6l-6.7,12.8h-2.8l-6.7-12.8v17.2H52V16.6h5.5l7.8,14.9l7.8-15h5.4v26.3H73.4z"/>
<path class="st1" d="M101.1,33.4v10.4h-5.8l-0.2-10.2l-1.2-3.1h9.1L101.1,33.4z"/>
<path class="st1" d="M119.5,42.9V16.6h17.7v4.5h-12.6v6.8h10.4v4.1h-10.4v10.9H119.5z"/>
<path class="st1" d="M157.5,43c-1.8,0.1-3.7-0.3-5.3-1c-1.4-0.7-2.6-1.7-3.6-2.9c-0.9-1.3-1.6-2.7-2-4.2c-0.4-1.6-0.6-3.3-0.6-4.9
	V16.6h5.1V30c0,1.1,0.1,2.1,0.3,3.2c0.2,1,0.5,1.9,1,2.8c0.5,0.8,1.2,1.5,2,1.9c0.9,0.5,2,0.7,3,0.7c1.1,0,2.1-0.2,3.1-0.7
	c0.8-0.5,1.5-1.1,2-1.9c0.5-0.9,0.8-1.8,1-2.8c0.2-1,0.3-2.1,0.3-3.1V16.6h5.1V30c0,1.7-0.2,3.4-0.6,5.1c-0.4,1.5-1.1,2.9-2.1,4.1
	c-0.9,1.2-2.2,2.2-3.6,2.8C161,42.7,159.2,43.1,157.5,43z"/>
<path class="st1" d="M197.9,38.4v4.5h-18.2V16.6h17.9v4.5h-12.8v6.3h11.1v4.1h-11.1v6.9H197.9z"/>
<path class="st1" d="M207.4,42.9V16.6h5.1v21.8h13.3v4.5H207.4z"/>
<path class="st1" d="M113,20.5c-0.1,0.3-0.4,0.6-0.7,0.8c-0.5,0.4-0.9,0.8-1.3,1.2c-0.8,1-2,1.7-3.3,2c-0.3,0-0.5,0-0.8,0.1
	c-0.2,0-0.3,0.1-0.5,0.2c-0.2,0.3-0.4,0.6-0.5,0.9c-0.5,1.1-1,2.1-1.7,3c-0.4,0.6-0.7,1.2-1.1,1.8c0,0.1-0.1,0.1-0.2,0.1h-9l0,0
	c-0.2-0.9-0.6-1.7-1-2.5c-0.3-0.8-0.5-1.6-0.6-2.5c0-0.4-0.3-0.8-0.7-0.9c-0.3-0.1-0.6-0.2-1-0.2c-0.9,0-1.8-0.3-2.5-0.8
	c-1-0.7-2-1.5-2.9-2.3c-0.3-0.3-0.5-0.8-0.4-1.2c0.1-0.6,0.3-1.2,0.6-1.8c0.6-1,1.2-2.1,1.8-3c0.2-0.3,0.3-0.5,0.4-0.8
	c0.2-0.8,1.1-1.3,1.9-1.1c0.4,0,0.8,0.1,1.1,0.3c0.3,0.1,0.5,0.4,0.5,0.7c0,0.5,0,0.9,0,1.4c0,0,0,0.1,0,0.1c0,0-0.2,0.3-0.3,0.5
	c-0.2-0.1-0.3-0.2-0.4-0.4c-0.1-0.2-0.2-0.3-0.4-0.3c-0.3-0.1-0.6-0.1-0.9-0.2c-0.1,0.5-0.3,0.9-0.5,1.3c-0.2,0.4-0.3,0.9-0.2,1.3
	c0.1,0.7,0,1.3,0,2.1c0.3-0.1,0.7-0.2,1-0.2c0.8-0.1,1.7,0.2,2.1,0.9c0.1,0.2,0.3,0.2,0.5,0.2c0.7-0.2,1.4-0.2,2.1,0
	c0.4,0.1,0.8,0.3,1,0.6c0.3,0.4,0.8,0.6,1.3,0.6c0.4,0,0.7-0.4,0.7-0.9c0.1-0.5,0-1-0.2-1.5c-0.1-0.1-0.1-0.3-0.1-0.4
	c-0.3,0-0.4-0.3-0.5-0.5s-0.1-0.5-0.1-0.7c0-0.2,0-0.4,0.3-0.4c-0.3-1.8,0.3-2.9,1.7-3.1c0.5-0.1,1.1,0,1.5,0.2
	c0.5,0.2,0.9,0.6,1,1.1c0.1,0.5,0.2,1,0.2,1.6c0.4,0.1,0.5,0.3,0.4,0.7c-0.1,0.3-0.2,0.5-0.3,0.8c-0.1,0.2-0.1,0.4-0.5,0.3
	c0,0.7,0.2,1.4,0.4,2.1c0.3,0.4,0.9,0.5,1.3,0.3c0.5-0.3,1-0.6,1.6-0.8c0.5-0.2,1.1-0.2,1.6,0.1c0.3-0.3,0.6-0.5,0.9-0.7
	c0.7-0.5,1.6-0.6,2.4-0.2c0.3,0.2,0.7,0.1,0.9-0.2c0-0.1,0-0.2,0-0.3c-0.6-0.9-1-2-0.9-3.1c0-0.4,0-0.8,0-1.1c0-0.2-0.1-0.3-0.3-0.4
	c-0.2-0.1-0.6,0.1-0.7,0.3c-0.2,0.3-0.6,0.5-1,0.5h-0.3c-0.1,0.4-0.1,0.4-0.5,0.4c-0.8,0-1.1-0.4-1-1.2c0-0.6,0.5-1,1-1.2
	c0.5-0.1,0.9-0.3,1.4-0.4c0.9-0.3,1.9,0.2,2.3,1.1c0.1,0.1,0.1,0.2,0.2,0.3c0.9,1.2,1.7,2.4,2.3,3.8c0.2,0.5,0.3,0.9,0.5,1.4
	L113,20.5z"/>
</svg>
